<?xml version="1.0" standalone="no"?>
<!DOCTYPE svg PUBLIC "-//W3C//DTD SVG 20010904//EN"
 "http://www.w3.org/TR/2001/REC-SVG-20010904/DTD/svg10.dtd">
<svg version="1.0" xmlns="http://www.w3.org/2000/svg"
 width="4096.000000pt" height="4096.000000pt" viewBox="0 0 4096.000000 4096.000000"
 preserveAspectRatio="xMidYMid meet">
<metadata>
Created by potrace 1.14, written by Peter Selinger 2001-2017
</metadata>
<g transform="translate(0.000000,4096.000000) scale(0.100000,-0.100000)"
fill="#000000" stroke="none">
<path d="M35100 38674 c-19 -3 -82 -11 -140 -20 -735 -105 -1398 -500 -1847
-1101 -282 -378 -450 -784 -530 -1278 -14 -87 -18 -170 -18 -395 0 -305 7
-379 61 -618 184 -823 746 -1531 1509 -1902 294 -143 585 -227 916 -266 174
-20 544 -15 707 10 612 93 1149 363 1582 796 433 433 703 970 796 1582 25 163
30 533 10 708 -59 506 -241 966 -542 1366 -449 598 -1081 976 -1839 1100 -96
15 -577 28 -665 18z m544 -820 c922 -127 1643 -903 1705 -1838 67 -998 -615
-1893 -1593 -2091 -802 -162 -1617 181 -2070 871 -426 651 -426 1517 0 2168
432 658 1177 997 1958 890z"/>
<path d="M9410 38464 c-161 -42 -312 -162 -383 -304 -49 -98 -67 -175 -67
-280 0 -166 59 -309 175 -425 116 -116 259 -175 425 -175 166 0 309 59 425
175 116 116 175 259 175 425 0 105 -18 182 -67 280 -72 144 -223 263 -388 305
-74 19 -222 18 -295 -1z"/>
<path d="M26210 38464 c-161 -42 -312 -162 -383 -304 -49 -98 -67 -175 -67
-280 0 -166 59 -309 175 -425 116 -116 259 -175 425 -175 166 0 309 59 425
175 116 116 175 259 175 425 0 105 -18 182 -67 280 -72 144 -223 263 -388 305
-74 19 -222 18 -295 -1z"/>
<path d="M17445 37782 c-153 -53 -250 -165 -275 -319 -6 -32 -118 -1095 -250
-2363 -132 -1268 -241 -2311 -243 -2319 -1 -8 -13 -18 -27 -22 -14 -4 -104
-31 -200 -59 -787 -233 -1668 -601 -2395 -1000 -81 -44 -149 -80 -151 -80 -3
0 -826 667 -1830 1483 -1004 815 -1850 1496 -1881 1514 -77 43 -170 59 -254
44 -143 -25 -6 105 -2055 -1945 -2050 -2049 -1920 -1912 -1945 -2055 -15 -84
1 -177 44 -254 18 -31 698 -876 1512 -1877 814 -1002 1481 -1825 1483 -1829 1
-5 -34 -75 -79 -157 -119 -217 -351 -687 -458 -929 -223 -505 -417 -1037 -579
-1590 -17 -59 -35 -101 -43 -103 -8 -1 -1070 -112 -2361 -247 -1948 -203
-2356 -248 -2402 -266 -108 -40 -198 -133 -237 -245 -19 -53 -19 -122 -17
-2741 l3 -2688 28 -56 c51 -105 130 -176 237 -214 30 -11 838 -99 2385 -260
1287 -135 2349 -246 2359 -247 15 -2 24 -22 43 -88 236 -832 617 -1760 1042
-2534 45 -82 80 -152 79 -157 -2 -4 -669 -827 -1483 -1829 -814 -1001 -1494
-1846 -1512 -1878 -43 -75 -59 -168 -44 -253 25 -142 -104 -6 1945 -2057 2058
-2060 1922 -1932 2061 -1950 118 -15 216 11 309 83 27 21 859 696 1847 1501
989 805 1800 1464 1802 1464 2 0 71 -37 153 -81 581 -317 1268 -620 1889 -834
l210 -73 5 -2448 5 -2449 31 -65 c39 -83 111 -155 194 -194 l65 -31 3705 0
3705 0 65 31 c83 39 155 111 194 194 l31 65 3 2447 c1 1347 4 2448 5 2448 2 0
105 35 228 79 659 231 1300 515 1893 840 72 39 131 71 133 71 2 0 830 -673
1841 -1495 1166 -950 1857 -1506 1892 -1523 50 -24 66 -27 165 -27 202 0 -24
-207 2126 1944 2151 2150 1944 1924 1944 2126 0 99 -3 115 -27 165 -17 35
-569 721 -1523 1892 -822 1010 -1495 1839 -1495 1842 0 2 37 71 81 153 422
767 805 1697 1042 2533 l24 85 354 37 c195 21 1241 130 2324 242 1084 113
1995 210 2025 216 129 24 238 107 297 228 l28 57 3 2685 c2 2627 2 2686 -17
2742 -38 113 -127 206 -235 247 -67 25 46 13 -4366 471 -212 22 -391 41 -399
43 -8 1 -25 43 -43 102 -160 547 -357 1087 -579 1590 -107 242 -339 712 -458
928 -44 82 -81 151 -81 153 0 3 667 824 1483 1826 815 1001 1494 1839 1510
1862 43 64 59 135 55 235 -6 169 170 -21 -1950 2097 -2048 2046 -1914 1920
-2056 1946 -81 15 -178 -2 -255 -45 -31 -18 -876 -698 -1877 -1512 -1002 -814
-1825 -1481 -1830 -1483 -4 -1 -73 33 -154 78 -743 407 -1626 775 -2426 1010
-96 28 -181 53 -187 55 -7 3 -13 12 -13 22 0 10 -110 1071 -244 2358 -206
1974 -248 2349 -266 2398 -42 113 -137 203 -252 239 -58 17 -160 18 -2721 18
-2499 -1 -2665 -2 -2712 -18z m-1248 -16472 c18 -36 47 -81 65 -100 61 -66
3676 -2870 3736 -2898 50 -24 69 -27 162 -27 93 0 112 3 162 27 60 28 3675
2832 3736 2898 18 19 47 64 65 100 l32 65 5 2257 5 2258 100 -77 c1355 -1034
2290 -2590 2570 -4278 68 -413 89 -669 88 -1105 0 -747 -106 -1406 -340 -2109
-510 -1539 -1581 -2872 -2967 -3696 -120 -72 -180 -130 -220 -215 l-31 -65 -3
-5233 -2 -5232 -3200 0 -3200 0 -2 5232 -3 5233 -32 67 c-42 89 -95 140 -233
223 -991 594 -1823 1444 -2402 2455 -503 876 -795 1828 -880 2865 -15 192 -15
778 0 960 69 802 233 1473 529 2165 453 1061 1171 1992 2088 2709 l130 101 5
-2258 5 -2257 32 -65z"/>
<path d="M4210 31464 c-210 -55 -381 -227 -435 -439 -19 -76 -19 -214 0 -290
42 -165 161 -316 305 -388 98 -49 175 -67 280 -67 105 0 182 18 280 67 144 72
263 223 305 388 19 76 19 214 0 290 -54 214 -226 386 -440 440 -74 19 -222 18
-295 -1z"/>
<path d="M35810 29064 c-161 -42 -312 -162 -383 -304 -49 -98 -67 -175 -67
-280 0 -166 59 -309 175 -425 116 -116 259 -175 425 -175 166 0 309 59 425
175 116 116 175 259 175 425 0 105 -18 182 -67 280 -72 144 -223 263 -388 305
-74 19 -222 18 -295 -1z"/>
<path d="M3810 12664 c-210 -55 -381 -227 -435 -439 -19 -76 -19 -214 0 -290
42 -165 161 -316 305 -388 98 -49 175 -67 280 -67 105 0 182 18 280 67 144 72
263 223 305 388 19 76 19 214 0 290 -54 214 -226 386 -440 440 -74 19 -222 18
-295 -1z"/>
<path d="M36210 12664 c-161 -42 -312 -162 -383 -304 -49 -98 -67 -175 -67
-280 0 -166 59 -309 175 -425 116 -116 259 -175 425 -175 166 0 309 59 425
175 116 116 175 259 175 425 0 105 -18 182 -67 280 -72 144 -223 263 -388 305
-74 19 -222 18 -295 -1z"/>
<path d="M4896 6668 c-126 -14 -300 -55 -446 -104 -642 -217 -1158 -733 -1374
-1374 -83 -247 -116 -448 -116 -712 0 -1110 818 -2038 1924 -2183 150 -19 402
-19 552 0 554 73 1054 345 1406 765 339 404 518 895 518 1420 0 257 -34 466
-116 710 -267 794 -977 1371 -1814 1476 -125 15 -408 17 -534 2z m504 -815
c496 -80 926 -452 1085 -937 91 -279 91 -593 0 -872 -159 -487 -582 -851
-1090 -939 -132 -23 -339 -23 -470 0 -582 101 -1040 558 -1140 1140 -23 131
-23 339 0 470 97 563 534 1016 1090 1131 169 35 339 37 525 7z"/>
<path d="M11810 4264 c-161 -42 -312 -162 -383 -304 -49 -98 -67 -175 -67
-280 0 -166 59 -309 175 -425 116 -116 259 -175 425 -175 105 0 182 18 280 67
144 72 263 223 305 388 19 76 19 214 0 290 -54 214 -226 386 -440 440 -74 19
-222 18 -295 -1z"/>
<path d="M31010 4264 c-161 -42 -312 -162 -383 -304 -49 -98 -67 -175 -67
-280 0 -166 59 -309 175 -425 116 -116 259 -175 425 -175 166 0 309 59 425
175 116 116 175 259 175 425 0 105 -18 182 -67 280 -72 144 -223 263 -388 305
-74 19 -222 18 -295 -1z"/>
</g>
</svg>
